<?xml version="1.0" standalone="no"?>
<!DOCTYPE svg PUBLIC "-//W3C//DTD SVG 1.1//EN" "http://www.w3.org/Graphics/SVG/1.1/DTD/svg11.dtd">
<svg xmlns="http://www.w3.org/2000/svg" width="195" height="44" viewBox="0 0 195 44">
    <g fill-rule="nonzero" fill="none">
        <g fill="#FFF">
            <path d="M80.434 28.19c0-6.441 2.533-8.809 9.324-8.809 6.792 0 9.292 2.368 9.292 8.81S96.554 37 89.758 37c-6.795 0-9.324-2.404-9.324-8.81zm14.246 0c0-3.864-1.18-5.05-4.922-5.05-3.74 0-4.958 1.186-4.958 5.05 0 3.866 1.213 5.052 4.958 5.052s4.922-1.219 4.922-5.051zM102.096 19.8h3.223l.38 1.53c2.286-1.427 4.022-1.949 6.134-1.949 2.356 0 3.953.661 4.851 2.056 2.357-1.498 4.125-2.056 6.31-2.056 3.986 0 5.755 1.847 5.755 6.093v11.112h-4.297v-9.963c0-2.437-.833-3.344-2.879-3.344-1.421 0-2.565.419-4.023 1.326.037.279.037.558.037.87v11.11h-4.296v-9.962c0-2.437-.834-3.344-2.88-3.344-1.42 0-2.601.419-4.022 1.358v11.944h-4.297V19.796l.004.004zM132.192 17.432c0-4.041 1.49-5.432 5.337-5.432h3.986v3.623h-2.842c-1.732 0-2.185.451-2.185 2.298V19.8h4.852v3.483h-4.852v13.303h-4.3V17.432h.004zM142.21 28.19c0-6.441 2.532-8.809 9.324-8.809 6.791 0 9.29 2.368 9.29 8.81S158.33 37 151.535 37c-6.796 0-9.324-2.404-9.324-8.81zm14.245 0c0-3.864-1.18-5.05-4.921-5.05-3.741 0-4.958 1.186-4.958 5.05 0 3.866 1.212 5.052 4.958 5.052 3.745 0 4.92-1.219 4.92-5.051zM163.594 30.907V19.796h4.3v9.958c0 2.437.935 3.344 3.329 3.344 1.699 0 2.981-.451 4.713-1.395V19.792h4.296v16.785h-3.222l-.417-1.637c-2.532 1.53-4.366 2.056-6.69 2.056-4.333 0-6.31-1.88-6.31-6.093v.004zM184.08 19.8v16.786h4.296V25.442c0-2.228-.094-3.2-1.483-5.642h-2.814zM194.065 19.381c-.67 0-1.315.066-1.973.201-2.748.612-3.12 2.003-3.582 4.994 1.822-.923 3.492-1.293 5.694-1.293H195v-3.902h-.935z"/>
            <g>
                <path d="M68.648 19.8v16.786h4.296V25.442c0-2.228-.094-3.2-1.482-5.642h-2.814zM78.633 19.381c-.67 0-1.315.066-1.972.201-2.749.612-3.12 2.003-3.582 4.994 1.822-.923 3.492-1.293 5.693-1.293h.797v-3.902h-.936z"/>
            </g>
        </g>
        <g fill="#C165EB">
            <path d="M55.755 23.608c-1.51-1.027-4.153-2.995-7.537-3.472-1.806-.255-3.612-.506-5.418-.76a4.525 4.525 0 0 1-3.401-2.441 4.605 4.605 0 0 1 .033-4.217l2.802-5.334a5.068 5.068 0 0 0-.931-5.967 4.93 4.93 0 0 0-5.93-.752C23.921 7.281 12.474 13.902 1.024 20.518V32.46c9.238-5.358 18.475-10.713 27.709-16.072.321 3.148 1.737 6.814 4.661 9.51h2.762c-4.836-4.18-5.91-9.276-5.284-13.13-9.27 5.375-18.54 10.754-27.806 16.13v-7.184C14.176 15.294 25.28 8.88 36.389 2.461a2.899 2.899 0 0 1 3.486.444 2.98 2.98 0 0 1 .55 3.51l-2.804 5.333a6.691 6.691 0 0 0-.012 6.193 6.558 6.558 0 0 0 5.056 3.502l5.077.592c2.92.34 5.275 2.198 6.288 2.921.822.588.72 1.307 0 1.874-.703.555-3.372 2.602-6.805 3.074-6.3.867-24.955 3.403-24.955 3.403-1.72.234-3.376.818-4.869 1.714-3.652 2.194-7.305 4.393-10.958 6.587-.785-.456-1.57-.916-2.355-1.372 2.392-1.398 4.783-2.79 7.175-4.188v-4.775c5.573-3.234 11.146-6.465 16.718-9.699a16.96 16.96 0 0 1-.704-1.972c-6.02 3.493-12.04 6.982-18.06 10.475v4.78C6.147 36.647 3.071 38.44 0 40.235c2.152 1.253 4.304 2.51 6.455 3.764 4.011-2.412 8.022-4.82 12.032-7.233a10.568 10.568 0 0 1 4.003-1.41s18.715-2.584 25-3.418c4.022-.535 7.68-3.321 8.074-3.711 1.505.189 3.234.879 3.16 3.074-.004.143.078.238.175.238.078 0 .167-.062.236-.201 2.03-4.344-2.021-6.814-3.384-7.739l.004.008z"/>
            <path d="M31.919 37.203H25.08c-2.758 0-5.276 1.052-6.728 2.063H31.92c3.034 0 5.157-2.026 6-3.925-.883.12-1.77.243-2.653.362a4.477 4.477 0 0 1-3.347 1.496v.004zM48.25 26.095a.305.305 0 0 0 .159.04c.057 0 .11-.011.158-.04.537-.292 1.07-.584 1.607-.88.082-.045.082-.164 0-.205-.537-.292-1.07-.584-1.607-.88a.305.305 0 0 0-.158-.04.305.305 0 0 0-.159.04c-.537.292-1.07.584-1.607.88-.08.045-.08.164 0 .205.537.292 1.07.584 1.607.88zM39.053 25.902h2.71c-8.124-7.13-7.664-11.865-5.952-15.123l2.803-5.335c.183-.349.11-.764-.106-.974-.236-.23-.65-.46-1.147-.176C27.237 10.084 15.876 16.7 5.11 22.918v2.38L35.136 7.927l-.752 1.212c-2.575 4.146-2.97 10.397 4.665 16.767l.004-.004z"/>
        </g>
    </g>
</svg>