<svg xmlns="http://www.w3.org/2000/svg" xmlns:xlink="http://www.w3.org/1999/xlink" width="800" zoomAndPan="magnify" viewBox="0 0 600 149.999998" height="200" preserveAspectRatio="xMidYMid meet" version="1.0"><defs><g/><clipPath id="b4baf42a66"><path d="M 461.644531 49.039062 L 530.472656 49.039062 L 530.472656 118.355469 L 461.644531 118.355469 Z M 461.644531 49.039062 " clip-rule="nonzero"/></clipPath><clipPath id="8129c460a9"><path d="M 496.058594 49.039062 C 477.054688 49.039062 461.644531 64.554688 461.644531 83.695312 C 461.644531 102.835938 477.054688 118.355469 496.058594 118.355469 C 515.066406 118.355469 530.472656 102.835938 530.472656 83.695312 C 530.472656 64.554688 515.066406 49.039062 496.058594 49.039062 " clip-rule="nonzero"/></clipPath><clipPath id="591c8c8d0a"><path d="M 478.511719 66.292969 L 513.097656 66.292969 L 513.097656 101.089844 L 478.511719 101.089844 Z M 478.511719 66.292969 " clip-rule="nonzero"/></clipPath><clipPath id="0eebf12fa8"><path d="M 495.804688 66.292969 C 486.253906 66.292969 478.511719 74.082031 478.511719 83.691406 C 478.511719 93.300781 486.253906 101.089844 495.804688 101.089844 C 505.355469 101.089844 513.097656 93.300781 513.097656 83.691406 C 513.097656 74.082031 505.355469 66.292969 495.804688 66.292969 " clip-rule="nonzero"/></clipPath></defs><rect x="-60" width="720" fill="#ffffff" y="-15" height="179.999997" fill-opacity="1"/><rect x="-60" width="720" fill="#ffffff" y="-15" height="179.999997" fill-opacity="1"/><rect x="-60" width="720" fill="#ffffff" y="-15" height="179.999997" fill-opacity="1"/><g fill="#000000" fill-opacity="1"><g transform="translate(13.617192, 114.21652)"><g><path d="M 36.34375 1.25 C 31.164062 1.25 26.253906 -0.0625 21.609375 -2.6875 C 16.972656 -5.320312 13.210938 -9.164062 10.328125 -14.21875 C 7.453125 -19.28125 6.015625 -25.191406 6.015625 -31.953125 C 6.015625 -38.722656 7.453125 -44.632812 10.328125 -49.6875 C 13.210938 -54.75 16.972656 -58.59375 21.609375 -61.21875 C 26.253906 -63.851562 31.164062 -65.171875 36.34375 -65.171875 C 44.53125 -65.171875 51.675781 -61.992188 57.78125 -55.640625 L 57.78125 -86.34375 C 57.78125 -88.019531 58.34375 -89.398438 59.46875 -90.484375 C 60.59375 -91.566406 61.953125 -92.109375 63.546875 -92.109375 C 65.128906 -92.109375 66.460938 -91.546875 67.546875 -90.421875 C 68.640625 -89.296875 69.1875 -87.9375 69.1875 -86.34375 L 69.1875 -5.015625 C 69.1875 -3.421875 68.640625 -2.082031 67.546875 -1 C 66.460938 0.0820312 65.128906 0.625 63.546875 0.625 C 61.953125 0.625 60.59375 0.0820312 59.46875 -1 C 58.34375 -2.082031 57.78125 -3.421875 57.78125 -5.015625 L 57.78125 -8.265625 C 51.675781 -1.921875 44.53125 1.25 36.34375 1.25 Z M 37.96875 -9.40625 C 41.8125 -9.40625 45.425781 -10.257812 48.8125 -11.96875 C 52.195312 -13.675781 55.1875 -15.953125 57.78125 -18.796875 L 57.78125 -45.125 C 55.1875 -47.957031 52.195312 -50.226562 48.8125 -51.9375 C 45.425781 -53.65625 41.8125 -54.515625 37.96875 -54.515625 C 31.789062 -54.515625 26.820312 -52.550781 23.0625 -48.625 C 19.300781 -44.695312 17.421875 -39.140625 17.421875 -31.953125 C 17.421875 -24.773438 19.300781 -19.222656 23.0625 -15.296875 C 26.820312 -11.367188 31.789062 -9.40625 37.96875 -9.40625 Z M 37.96875 -9.40625 "/></g></g></g><g fill="#000000" fill-opacity="1"><g transform="translate(92.701755, 114.21652)"><g><path d="M 15.296875 -76.953125 C 13.535156 -76.953125 12.023438 -77.578125 10.765625 -78.828125 C 9.515625 -80.085938 8.890625 -81.59375 8.890625 -83.34375 L 8.890625 -83.84375 C 8.890625 -85.59375 9.515625 -87.09375 10.765625 -88.34375 C 12.023438 -89.601562 13.535156 -90.234375 15.296875 -90.234375 L 16.046875 -90.234375 C 17.796875 -90.234375 19.296875 -89.601562 20.546875 -88.34375 C 21.804688 -87.09375 22.4375 -85.59375 22.4375 -83.84375 L 22.4375 -83.34375 C 22.4375 -81.59375 21.804688 -80.085938 20.546875 -78.828125 C 19.296875 -77.578125 17.796875 -76.953125 16.046875 -76.953125 Z M 15.546875 0.625 C 13.953125 0.625 12.613281 0.0820312 11.53125 -1 C 10.445312 -2.082031 9.90625 -3.421875 9.90625 -5.015625 L 9.90625 -58.78125 C 9.90625 -60.363281 10.445312 -61.71875 11.53125 -62.84375 C 12.613281 -63.976562 13.953125 -64.546875 15.546875 -64.546875 C 17.210938 -64.546875 18.585938 -64 19.671875 -62.90625 C 20.765625 -61.820312 21.3125 -60.445312 21.3125 -58.78125 L 21.3125 -5.015625 C 21.3125 -3.421875 20.742188 -2.082031 19.609375 -1 C 18.484375 0.0820312 17.128906 0.625 15.546875 0.625 Z M 15.546875 0.625 "/></g></g></g><g fill="#000000" fill-opacity="1"><g transform="translate(123.909449, 114.21652)"><g><path d="M 39.734375 30.078125 C 34.878906 30.078125 29.988281 29.445312 25.0625 28.1875 C 20.132812 26.9375 16.082031 25.394531 12.90625 23.5625 C 11.40625 22.644531 10.65625 21.179688 10.65625 19.171875 C 10.65625 17.835938 11.132812 16.644531 12.09375 15.59375 C 13.050781 14.550781 14.242188 14.03125 15.671875 14.03125 C 16.335938 14.03125 17.085938 14.195312 17.921875 14.53125 C 24.273438 17.707031 31.164062 19.296875 38.59375 19.296875 C 51.382812 19.296875 57.78125 12.488281 57.78125 -1.125 L 57.78125 -9.53125 C 51.84375 -3.175781 44.695312 0 36.34375 0 C 31.414062 0 26.632812 -1.226562 22 -3.6875 C 17.363281 -6.15625 13.539062 -9.832031 10.53125 -14.71875 C 7.519531 -19.613281 6.015625 -25.566406 6.015625 -32.578125 C 6.015625 -39.597656 7.519531 -45.550781 10.53125 -50.4375 C 13.539062 -55.332031 17.363281 -59.007812 22 -61.46875 C 26.632812 -63.9375 31.414062 -65.171875 36.34375 -65.171875 C 44.695312 -65.171875 51.84375 -61.992188 57.78125 -55.640625 L 57.78125 -58.78125 C 57.78125 -60.363281 58.320312 -61.71875 59.40625 -62.84375 C 60.488281 -63.976562 61.828125 -64.546875 63.421875 -64.546875 C 65.003906 -64.546875 66.359375 -63.976562 67.484375 -62.84375 C 68.617188 -61.71875 69.1875 -60.363281 69.1875 -58.78125 L 69.1875 -2.75 C 69.1875 7.769531 66.632812 15.867188 61.53125 21.546875 C 56.4375 27.234375 49.171875 30.078125 39.734375 30.078125 Z M 38.71875 -10.40625 C 42.644531 -10.40625 46.113281 -11.238281 49.125 -12.90625 C 52.132812 -14.582031 55.019531 -16.835938 57.78125 -19.671875 L 57.78125 -45.5 C 55.019531 -48.332031 52.132812 -50.582031 49.125 -52.25 C 46.113281 -53.925781 42.644531 -54.765625 38.71875 -54.765625 C 32.457031 -54.765625 27.34375 -52.863281 23.375 -49.0625 C 19.40625 -45.257812 17.421875 -39.765625 17.421875 -32.578125 C 17.421875 -25.398438 19.40625 -19.910156 23.375 -16.109375 C 27.34375 -12.304688 32.457031 -10.40625 38.71875 -10.40625 Z M 38.71875 -10.40625 "/></g></g></g><g fill="#000000" fill-opacity="1"><g transform="translate(202.994012, 114.21652)"><g><path d="M 15.296875 -76.953125 C 13.535156 -76.953125 12.023438 -77.578125 10.765625 -78.828125 C 9.515625 -80.085938 8.890625 -81.59375 8.890625 -83.34375 L 8.890625 -83.84375 C 8.890625 -85.59375 9.515625 -87.09375 10.765625 -88.34375 C 12.023438 -89.601562 13.535156 -90.234375 15.296875 -90.234375 L 16.046875 -90.234375 C 17.796875 -90.234375 19.296875 -89.601562 20.546875 -88.34375 C 21.804688 -87.09375 22.4375 -85.59375 22.4375 -83.84375 L 22.4375 -83.34375 C 22.4375 -81.59375 21.804688 -80.085938 20.546875 -78.828125 C 19.296875 -77.578125 17.796875 -76.953125 16.046875 -76.953125 Z M 15.546875 0.625 C 13.953125 0.625 12.613281 0.0820312 11.53125 -1 C 10.445312 -2.082031 9.90625 -3.421875 9.90625 -5.015625 L 9.90625 -58.78125 C 9.90625 -60.363281 10.445312 -61.71875 11.53125 -62.84375 C 12.613281 -63.976562 13.953125 -64.546875 15.546875 -64.546875 C 17.210938 -64.546875 18.585938 -64 19.671875 -62.90625 C 20.765625 -61.820312 21.3125 -60.445312 21.3125 -58.78125 L 21.3125 -5.015625 C 21.3125 -3.421875 20.742188 -2.082031 19.609375 -1 C 18.484375 0.0820312 17.128906 0.625 15.546875 0.625 Z M 15.546875 0.625 "/></g></g></g><g fill="#000000" fill-opacity="1"><g transform="translate(234.201705, 114.21652)"><g><path d="M 31.953125 1.25 C 19.753906 1.25 13.65625 -4.265625 13.65625 -15.296875 L 13.65625 -54.140625 L 4.765625 -54.140625 C 4.097656 -54.140625 3.53125 -54.367188 3.0625 -54.828125 C 2.601562 -55.285156 2.375 -55.847656 2.375 -56.515625 C 2.375 -57.359375 2.753906 -58.070312 3.515625 -58.65625 L 20.546875 -75.328125 C 21.304688 -76.078125 22.019531 -76.453125 22.6875 -76.453125 C 23.351562 -76.453125 23.914062 -76.203125 24.375 -75.703125 C 24.832031 -75.203125 25.0625 -74.613281 25.0625 -73.9375 L 25.0625 -63.921875 L 39.234375 -63.921875 C 40.648438 -63.921875 41.816406 -63.457031 42.734375 -62.53125 C 43.648438 -61.613281 44.109375 -60.445312 44.109375 -59.03125 C 44.109375 -57.695312 43.648438 -56.546875 42.734375 -55.578125 C 41.816406 -54.617188 40.648438 -54.140625 39.234375 -54.140625 L 25.0625 -54.140625 L 25.0625 -16.296875 C 25.0625 -13.035156 25.832031 -10.960938 27.375 -10.078125 C 28.925781 -9.203125 30.875 -8.765625 33.21875 -8.765625 C 34.882812 -8.765625 36.550781 -9.019531 38.21875 -9.53125 C 38.550781 -9.613281 38.90625 -9.695312 39.28125 -9.78125 C 39.664062 -9.863281 40.148438 -9.90625 40.734375 -9.90625 C 41.898438 -9.90625 42.941406 -9.460938 43.859375 -8.578125 C 44.785156 -7.703125 45.25 -6.640625 45.25 -5.390625 C 45.25 -3.460938 44.285156 -2 42.359375 -1 C 39.097656 0.5 35.628906 1.25 31.953125 1.25 Z M 31.953125 1.25 "/></g></g></g><g fill="#000000" fill-opacity="1"><g transform="translate(282.078587, 114.21652)"><g><path d="M 26.1875 1.25 C 22.507812 1.25 19.101562 0.5 15.96875 -1 C 12.84375 -2.507812 10.359375 -4.703125 8.515625 -7.578125 C 6.679688 -10.460938 5.765625 -13.785156 5.765625 -17.546875 C 5.765625 -23.722656 8.207031 -28.648438 13.09375 -32.328125 C 17.976562 -36.003906 25.144531 -37.84375 34.59375 -37.84375 L 49.75 -37.84375 L 49.75 -38.859375 C 49.75 -44.367188 48.390625 -48.332031 45.671875 -50.75 C 42.960938 -53.175781 38.726562 -54.390625 32.96875 -54.390625 C 29.789062 -54.390625 26.96875 -54.140625 24.5 -53.640625 C 22.03125 -53.140625 19.296875 -52.390625 16.296875 -51.390625 C 15.628906 -51.222656 15.082031 -51.140625 14.65625 -51.140625 C 13.40625 -51.140625 12.320312 -51.597656 11.40625 -52.515625 C 10.488281 -53.429688 10.03125 -54.554688 10.03125 -55.890625 C 10.03125 -58.148438 11.113281 -59.738281 13.28125 -60.65625 C 20.382812 -63.664062 27.613281 -65.171875 34.96875 -65.171875 C 40.726562 -65.171875 45.59375 -64 49.5625 -61.65625 C 53.53125 -59.320312 56.453125 -56.296875 58.328125 -52.578125 C 60.210938 -48.859375 61.15625 -44.828125 61.15625 -40.484375 L 61.15625 -5.015625 C 61.15625 -3.421875 60.59375 -2.082031 59.46875 -1 C 58.34375 0.0820312 56.984375 0.625 55.390625 0.625 C 53.804688 0.625 52.46875 0.0820312 51.375 -1 C 50.289062 -2.082031 49.75 -3.421875 49.75 -5.015625 L 49.75 -8.265625 C 43.570312 -1.921875 35.71875 1.25 26.1875 1.25 Z M 30.453125 -8.765625 C 34.128906 -8.765625 37.679688 -9.660156 41.109375 -11.453125 C 44.535156 -13.253906 47.414062 -15.492188 49.75 -18.171875 L 49.75 -28.703125 L 36.09375 -28.703125 C 23.476562 -28.703125 17.171875 -25.398438 17.171875 -18.796875 C 17.171875 -15.785156 18.191406 -13.359375 20.234375 -11.515625 C 22.285156 -9.679688 25.691406 -8.765625 30.453125 -8.765625 Z M 30.453125 -8.765625 "/></g></g></g><g fill="#000000" fill-opacity="1"><g transform="translate(352.515228, 114.21652)"><g><path d="M 15.546875 0.625 C 13.953125 0.625 12.613281 0.0820312 11.53125 -1 C 10.445312 -2.082031 9.90625 -3.421875 9.90625 -5.015625 L 9.90625 -86.34375 C 9.90625 -87.9375 10.445312 -89.296875 11.53125 -90.421875 C 12.613281 -91.546875 13.953125 -92.109375 15.546875 -92.109375 C 17.210938 -92.109375 18.585938 -91.566406 19.671875 -90.484375 C 20.765625 -89.398438 21.3125 -88.019531 21.3125 -86.34375 L 21.3125 -5.015625 C 21.3125 -3.421875 20.742188 -2.082031 19.609375 -1 C 18.484375 0.0820312 17.128906 0.625 15.546875 0.625 Z M 15.546875 0.625 "/></g></g></g><g fill="#000000" fill-opacity="1"><g transform="translate(383.722921, 114.21652)"><g><path d="M 36.34375 1.25 C 31.164062 1.25 26.253906 -0.0625 21.609375 -2.6875 C 16.972656 -5.320312 13.210938 -9.164062 10.328125 -14.21875 C 7.453125 -19.28125 6.015625 -25.191406 6.015625 -31.953125 C 6.015625 -38.722656 7.453125 -44.632812 10.328125 -49.6875 C 13.210938 -54.75 16.972656 -58.59375 21.609375 -61.21875 C 26.253906 -63.851562 31.164062 -65.171875 36.34375 -65.171875 C 44.53125 -65.171875 51.675781 -61.992188 57.78125 -55.640625 L 57.78125 -86.34375 C 57.78125 -88.019531 58.34375 -89.398438 59.46875 -90.484375 C 60.59375 -91.566406 61.953125 -92.109375 63.546875 -92.109375 C 65.128906 -92.109375 66.460938 -91.546875 67.546875 -90.421875 C 68.640625 -89.296875 69.1875 -87.9375 69.1875 -86.34375 L 69.1875 -5.015625 C 69.1875 -3.421875 68.640625 -2.082031 67.546875 -1 C 66.460938 0.0820312 65.128906 0.625 63.546875 0.625 C 61.953125 0.625 60.59375 0.0820312 59.46875 -1 C 58.34375 -2.082031 57.78125 -3.421875 57.78125 -5.015625 L 57.78125 -8.265625 C 51.675781 -1.921875 44.53125 1.25 36.34375 1.25 Z M 37.96875 -9.40625 C 41.8125 -9.40625 45.425781 -10.257812 48.8125 -11.96875 C 52.195312 -13.675781 55.1875 -15.953125 57.78125 -18.796875 L 57.78125 -45.125 C 55.1875 -47.957031 52.195312 -50.226562 48.8125 -51.9375 C 45.425781 -53.65625 41.8125 -54.515625 37.96875 -54.515625 C 31.789062 -54.515625 26.820312 -52.550781 23.0625 -48.625 C 19.300781 -44.695312 17.421875 -39.140625 17.421875 -31.953125 C 17.421875 -24.773438 19.300781 -19.222656 23.0625 -15.296875 C 26.820312 -11.367188 31.789062 -9.40625 37.96875 -9.40625 Z M 37.96875 -9.40625 "/></g></g></g><g fill="#000000" fill-opacity="1"><g transform="translate(462.796853, 114.21652)"><g/></g></g><g fill="#000000" fill-opacity="1"><g transform="translate(495.383204, 114.21652)"><g/></g></g><g fill="#000000" fill-opacity="1"><g transform="translate(527.964822, 114.21652)"><g><path d="M 31.953125 1.25 C 19.753906 1.25 13.65625 -4.265625 13.65625 -15.296875 L 13.65625 -54.140625 L 4.765625 -54.140625 C 4.097656 -54.140625 3.53125 -54.367188 3.0625 -54.828125 C 2.601562 -55.285156 2.375 -55.847656 2.375 -56.515625 C 2.375 -57.359375 2.753906 -58.070312 3.515625 -58.65625 L 20.546875 -75.328125 C 21.304688 -76.078125 22.019531 -76.453125 22.6875 -76.453125 C 23.351562 -76.453125 23.914062 -76.203125 24.375 -75.703125 C 24.832031 -75.203125 25.0625 -74.613281 25.0625 -73.9375 L 25.0625 -63.921875 L 39.234375 -63.921875 C 40.648438 -63.921875 41.816406 -63.457031 42.734375 -62.53125 C 43.648438 -61.613281 44.109375 -60.445312 44.109375 -59.03125 C 44.109375 -57.695312 43.648438 -56.546875 42.734375 -55.578125 C 41.816406 -54.617188 40.648438 -54.140625 39.234375 -54.140625 L 25.0625 -54.140625 L 25.0625 -16.296875 C 25.0625 -13.035156 25.832031 -10.960938 27.375 -10.078125 C 28.925781 -9.203125 30.875 -8.765625 33.21875 -8.765625 C 34.882812 -8.765625 36.550781 -9.019531 38.21875 -9.53125 C 38.550781 -9.613281 38.90625 -9.695312 39.28125 -9.78125 C 39.664062 -9.863281 40.148438 -9.90625 40.734375 -9.90625 C 41.898438 -9.90625 42.941406 -9.460938 43.859375 -8.578125 C 44.785156 -7.703125 45.25 -6.640625 45.25 -5.390625 C 45.25 -3.460938 44.285156 -2 42.359375 -1 C 39.097656 0.5 35.628906 1.25 31.953125 1.25 Z M 31.953125 1.25 "/></g></g></g><g clip-path="url(#b4baf42a66)"><g clip-path="url(#8129c460a9)"><path stroke-linecap="butt" transform="matrix(0.0696119, 0, 0, 0.069579, 461.645426, 49.039166)" fill="none" stroke-linejoin="miter" d="M 494.357319 -0.0014809 C 221.359488 -0.0014809 -0.0128544 222.991307 -0.0128544 498.083115 C -0.0128544 773.174923 221.359488 996.223853 494.357319 996.223853 C 767.411266 996.223853 988.727493 773.174923 988.727493 498.083115 C 988.727493 222.991307 767.411266 -0.0014809 494.357319 -0.0014809 " stroke="#66fcf1" stroke-width="301.75345" stroke-opacity="1" stroke-miterlimit="4"/></g></g><g clip-path="url(#591c8c8d0a)"><g clip-path="url(#0eebf12fa8)"><path stroke-linecap="butt" transform="matrix(0.0696502, 0, 0, 0.0695454, 478.510489, 66.293209)" fill="none" stroke-linejoin="miter" d="M 248.300886 -0.00344786 C 111.175858 -0.00344786 0.0176548 111.996188 0.0176548 250.170262 C 0.0176548 388.344336 111.175858 500.343972 248.300886 500.343972 C 385.425914 500.343972 496.584117 388.344336 496.584117 250.170262 C 496.584117 111.996188 385.425914 -0.00344786 248.300886 -0.00344786 " stroke="#66fcf1" stroke-width="280.19965" stroke-opacity="1" stroke-miterlimit="4"/></g></g></svg>